HIERARCHY
ROOT Hips
{
	OFFSET 0.000000 0.000000 0.000000
	CHANNELS 6 Xposition Yposition Zposition Zrotation Yrotation Xrotation 
	JOINT LHipJoint
	{
		OFFSET 0.000000 0.000000 0.000000
		CHANNELS 3 Zrotation Yrotation Xrotation
		JOINT LeftUpLeg
		{
			OFFSET 1.363060 -1.794630 0.839290
			CHANNELS 3 Zrotation Yrotation Xrotation
			JOINT LeftLeg
			{
				OFFSET 2.448110 -6.726130 0.000000
				CHANNELS 3 Zrotation Yrotation Xrotation
				JOINT LeftFoot
				{
					OFFSET 2.562200 -7.039590 0.000000
					CHANNELS 3 Zrotation Yrotation Xrotation
					JOINT LeftToeBase
					{
						OFFSET 0.157640 -0.433110 2.322550
						CHANNELS 3 Zrotation Yrotation Xrotation
						End Site
						{
							OFFSET 0.000000 0.000000 0.000000
						}
					}
				}
			}
		}
	}
	JOINT RHipJoint
	{
		OFFSET 0.000000 0.000000 0.000000
		CHANNELS 3 Zrotation Yrotation Xrotation
		JOINT RightUpLeg
		{
			OFFSET -1.305520 -1.794630 0.839290
			CHANNELS 3 Zrotation Yrotation Xrotation
			JOINT RightLeg
			{
				OFFSET -2.542530 -6.985550 0.000000
				CHANNELS 3 Zrotation Yrotation Xrotation
				JOINT RightFoot
				{
					OFFSET -2.568260 -7.056230 0.000000
					CHANNELS 3 Zrotation Yrotation Xrotation
					JOINT RightToeBase
					{
						OFFSET -0.164730 -0.452590 2.363150
						CHANNELS 3 Zrotation Yrotation Xrotation
						End Site
						{
							OFFSET 0.000000 0.000000 0.000000
						}
					}
				}
			}
		}
	}
	JOINT LowerBack
	{
		OFFSET 0.000000 0.000000 0.000000
		CHANNELS 3 Zrotation Yrotation Xrotation
		JOINT Spine
		{
			OFFSET 0.028270 2.035590 -0.193380
			CHANNELS 3 Zrotation Yrotation Xrotation
			JOINT Spine1
			{
				OFFSET 0.056720 2.048850 -0.042750
				CHANNELS 3 Zrotation Yrotation Xrotation
				JOINT Neck
				{
					OFFSET 0.000000 0.000000 0.000000
					CHANNELS 3 Zrotation Yrotation Xrotation
					JOINT Neck1
					{
						OFFSET -0.054170 1.746240 0.172020
						CHANNELS 3 Zrotation Yrotation Xrotation
						JOINT Head
						{
							OFFSET 0.104070 1.761360 -0.123970
							CHANNELS 3 Zrotation Yrotation Xrotation
							End Site
							{
								OFFSET 0.000000 0.000000 0.000000
							}
						}
					}
				}
				JOINT LeftShoulder
				{
					OFFSET 0.000000 0.000000 0.000000
					CHANNELS 3 Zrotation Yrotation Xrotation
					JOINT LeftArm
					{
						OFFSET 3.362410 1.200890 -0.311210
						CHANNELS 3 Zrotation Yrotation Xrotation
						JOINT LeftForeArm
						{
							OFFSET 4.983000 -0.000000 -0.000000
							CHANNELS 3 Zrotation Yrotation Xrotation
							JOINT LeftHand
							{
								OFFSET 3.483560 -0.000000 -0.000000
								CHANNELS 3 Zrotation Yrotation Xrotation
								JOINT LeftFingerBase
								{
									OFFSET 0.000000 0.000000 0.000000
									CHANNELS 3 Zrotation Yrotation Xrotation
									JOINT LeftHandIndex1
									{
										OFFSET 0.715260 -0.000000 -0.000000
										CHANNELS 3 Zrotation Yrotation Xrotation
										End Site
										{
											OFFSET 0.000000 0.000000 0.000000
										}
									}
								}
								JOINT LThumb
								{
									OFFSET 0.000000 0.000000 0.000000
									CHANNELS 3 Zrotation Yrotation Xrotation
									End Site
									{
										OFFSET 0.000000 0.000000 0.000000
									}
								}
							}
						}
					}
				}
				JOINT RightShoulder
				{
					OFFSET 0.000000 0.000000 0.000000
					CHANNELS 3 Zrotation Yrotation Xrotation
					JOINT RightArm
					{
						OFFSET -3.136600 1.374050 -0.404650
						CHANNELS 3 Zrotation Yrotation Xrotation
						JOINT RightForeArm
						{
							OFFSET -5.241900 -0.000000 -0.000000
							CHANNELS 3 Zrotation Yrotation Xrotation
							JOINT RightHand
							{
								OFFSET -3.444170 -0.000000 -0.000000
								CHANNELS 3 Zrotation Yrotation Xrotation
								JOINT RightFingerBase
								{
									OFFSET 0.000000 0.000000 0.000000
									CHANNELS 3 Zrotation Yrotation Xrotation
									JOINT RightHandIndex1
									{
										OFFSET -0.622530 -0.000000 -0.000000
										CHANNELS 3 Zrotation Yrotation Xrotation
										End Site
										{
											OFFSET 0.000000 0.000000 0.000000
										}
									}
								}
								JOINT RThumb
								{
									OFFSET 0.000000 0.000000 0.000000
									CHANNELS 3 Zrotation Yrotation Xrotation
									End Site
									{
										OFFSET 0.000000 0.000000 0.000000
									}
								}
							}
						}
					}
				}
			}
		}
	}
}
MOTION
Frames: 12
Frame Time: 0.008333
0.383159 17.458094 -1.877135 1.678643 -3.784379 5.613000 3.211015 3.298013 0.837045 -22.501015 -6.773049 -20.689499 2.103779 10.695410 32.714784 -0.206750 3.676184 -9.175402 0.515100 -4.600200 -12.771700 -5.251184 -3.440936 0.607781 18.735967 13.343260 -20.643331 -3.384909 -11.190486 34.886727 0.927771 -8.044065 -11.593335 -0.554600 4.770400 -13.254800 0.691838 2.351533 11.575359 0.523360 3.452087 -0.838710 -0.412333 1.601764 -0.835758 -6.993101 -4.722194 -4.121275 3.916764 -6.379367 4.285780 2.007600 -3.113600 0.737900 3.449050 -5.115321 2.747266 -61.285600 -53.324778 36.719817 39.741406 -42.024389 -16.064188 -0.908385 -0.899161 -62.864002 2.346412 29.396643 1.726500 -7.125000 0.000000 0.000000 -29.463700 56.457400 -8.809300 -2.475100 4.669742 1.311286 51.930624 55.548838 16.210322 -27.938823 34.337616 -7.549282 0.015964 -0.782371 -64.836413 -3.344386 8.643110 -0.413800 7.125000 0.000000 0.000000 17.291300 -21.112600 10.375900 
0.383853 17.455517 -1.877630 1.757552 -3.778446 5.593911 3.211990 3.301944 0.838818 -22.602193 -6.725900 -20.633039 2.095267 10.675719 32.670366 -0.197292 3.612093 -9.079811 0.494800 -4.509800 -12.515400 -5.247697 -3.439192 0.611434 18.628832 13.349121 -20.693948 -3.404607 -11.222924 34.985112 0.870622 -7.821480 -11.742473 -0.528700 4.659500 -12.939800 0.635772 2.357974 11.624618 0.501149 3.454848 -0.846421 -0.461551 1.602401 -0.876024 -6.907062 -4.729227 -4.108219 3.901351 -6.390700 4.315304 1.981400 -3.119900 0.747400 3.446640 -5.114481 2.741054 -61.265395 -53.301236 36.679585 39.764869 -42.064970 -16.131602 -0.927280 -0.953890 -62.742420 0.837225 29.992090 1.042100 -7.125000 0.000000 0.000000 -31.357300 56.696800 -9.643400 -2.477743 4.673498 1.317088 51.987679 55.519170 16.160507 -27.996210 34.387987 -7.579550 0.018892 -0.783652 -64.796580 -3.398149 8.616316 -0.421200 7.125000 0.000000 0.000000 17.256300 -21.133700 10.344100 
0.383953 17.453832 -1.878522 1.755863 -3.791919 5.587455 3.213274 3.302495 0.838068 -22.604477 -6.727906 -20.615999 2.096999 10.676640 32.676544 -0.202572 3.629422 -9.064502 0.480800 -4.446800 -12.337100 -5.247996 -3.439064 0.611229 18.623931 13.336568 -20.718091 -3.411742 -11.234042 35.018706 0.858671 -7.763777 -11.733552 -0.516400 4.606000 -12.788000 0.648411 2.362845 11.639989 0.495838 3.462522 -0.839786 -0.480413 1.606191 -0.865054 -6.910400 -4.734256 -4.123906 3.911791 -6.395744 4.339562 1.988200 -3.122500 0.764200 3.443458 -5.118166 2.737537 -61.184504 -53.290626 36.684158 39.884427 -42.147978 -16.227517 -0.930390 -0.959248 -62.846033 0.732829 30.131206 0.997400 -7.125000 0.000000 0.000000 -31.564600 56.793500 -9.792700 -2.477742 4.677786 1.313964 51.953269 55.524546 16.098624 -28.045977 34.435211 -7.606488 0.019299 -0.783797 -64.749118 -3.415713 8.617764 -0.424100 7.125000 0.000000 0.000000 17.243600 -21.131100 10.336900 
0.382763 17.454129 -1.878919 1.699357 -3.782514 5.583208 3.211840 3.302444 0.836766 -22.538139 -6.706406 -20.621539 2.096317 10.676997 32.672114 -0.210962 3.657949 -9.040759 0.483000 -4.456700 -12.365200 -5.253110 -3.439611 0.611060 18.703452 13.333630 -20.730463 -3.425052 -11.251945 35.082888 0.866143 -7.812566 -11.774887 -0.527500 4.654500 -12.925700 0.696508 2.345029 11.645343 0.507368 3.444677 -0.833156 -0.467204 1.597846 -0.856652 -6.935440 -4.728011 -4.088136 3.918688 -6.389764 4.347180 1.998900 -3.119900 0.760700 3.440571 -5.121828 2.734594 -61.041338 -53.217591 36.683088 40.098698 -42.297598 -16.383733 -0.930483 -0.939910 -63.043267 1.275790 30.202069 1.259900 -7.125000 0.000000 0.000000 -31.101600 56.945000 -9.746200 -2.473882 4.680005 1.313912 51.932995 55.493534 16.193936 -28.159595 34.546676 -7.668054 0.022510 -0.788077 -64.838770 -3.517657 8.658013 -0.441700 7.125000 0.000000 0.000000 17.170200 -21.087400 10.306500 
0.382168 17.455319 -1.880208 1.699439 -3.789702 5.590390 3.213402 3.302128 0.835831 -22.544554 -6.680843 -20.643485 2.097598 10.679599 32.678136 -0.210202 3.649583 -9.017106 0.483600 -4.459300 -12.372400 -5.256155 -3.438875 0.612886 18.709288 13.360754 -20.743543 -3.441454 -11.273918 35.157162 0.862027 -7.789709 -11.756614 -0.527300 4.653600 -12.923200 0.691911 2.341784 11.657451 0.505977 3.440155 -0.834316 -0.464896 1.595525 -0.869480 -6.956832 -4.728881 -4.067615 3.933346 -6.392188 4.363136 2.012300 -3.121400 0.766700 3.436955 -5.126781 2.727994 -60.936109 -53.181807 36.681900 40.268753 -42.427999 -16.546706 -0.956252 -0.936944 -63.217527 1.273503 30.940840 1.290000 -7.125000 0.000000 0.000000 -31.689100 57.549000 -10.432800 -2.473566 4.683920 1.315500 51.930303 55.461638 16.224140 -28.265886 34.647047 -7.723530 0.025813 -0.787440 -64.895046 -3.550928 8.617051 -0.445300 7.125000 0.000000 0.000000 17.150100 -21.124100 10.278300 
0.381177 17.457698 -1.880604 1.727092 -3.808123 5.612519 3.215818 3.301475 0.835199 -22.588654 -6.658064 -20.689869 2.100175 10.685296 32.691346 -0.241338 3.769832 -8.992331 0.529700 -4.663700 -12.951800 -5.257990 -3.438264 0.614234 18.684076 13.366006 -20.749239 -3.456148 -11.291045 35.216064 0.860753 -7.742880 -11.612870 -0.531200 4.670300 -12.970600 0.640686 2.347557 11.642958 0.502634 3.442364 -0.839445 -0.450090 1.595846 -0.882035 -6.939547 -4.721475 -4.038210 3.935855 -6.385310 4.380987 2.009900 -3.118400 0.767900 3.433527 -5.128678 2.722010 -60.833925 -53.114913 36.693750 40.449411 -42.565902 -16.712071 -0.974600 -0.938606 -63.280616 1.106490 31.501661 1.229400 -7.125000 0.000000 0.000000 -32.314400 57.975500 -11.010100 -2.472474 4.685679 1.318759 51.963139 55.438874 16.271907 -28.363565 34.737207 -7.774341 0.030502 -0.787702 -64.917757 -3.617513 8.566961 -0.453600 7.125000 0.000000 0.000000 17.107700 -21.166900 10.233000 
0.379888 17.458788 -1.881496 1.755079 -3.819221 5.635880 3.218165 3.300192 0.833557 -22.619051 -6.663313 -20.721250 2.099632 10.687162 32.692138 -0.277166 3.922893 -9.024309 0.599400 -4.956100 -13.783300 -5.258813 -3.436862 0.615632 18.651064 13.372261 -20.785113 -3.468155 -11.308269 35.268779 0.848948 -7.667738 -11.539615 -0.516300 4.605500 -12.786700 0.597909 2.361275 11.627212 0.496075 3.455792 -0.838623 -0.449511 1.601890 -0.876631 -6.904743 -4.727486 -4.031201 3.919759 -6.394006 4.379743 1.994100 -3.122700 0.763400 3.430915 -5.132204 2.719032 -60.722037 -53.065919 36.756290 40.665435 -42.698904 -16.852298 -0.955676 -0.947688 -63.284725 0.981223 31.093286 1.151300 -7.125000 0.000000 0.000000 -32.100600 57.624000 -10.647600 -2.470157 4.690937 1.319558 51.928321 55.368863 16.298302 -28.496923 34.870771 -7.850339 0.036640 -0.794111 -64.975240 -3.798559 8.602656 -0.483600 7.125000 0.000000 0.000000 16.979600 -21.122400 10.167200 
0.379095 17.459383 -1.881893 1.698338 -3.810132 5.630740 3.216325 3.299522 0.832829 -22.547803 -6.656756 -20.732676 2.098512 10.688132 32.687970 -0.284811 3.958865 -9.043541 0.636900 -5.106100 -14.211300 -5.262056 -3.437629 0.615071 18.726710 13.376358 -20.763153 -3.470552 -11.309105 35.280187 0.846050 -7.656049 -11.547535 -0.491000 4.493000 -12.467800 0.656692 2.346363 11.649147 0.507443 3.442697 -0.835963 -0.450081 1.596371 -0.881729 -6.890017 -4.726486 -4.007162 3.887980 -6.393627 4.364264 1.975800 -3.122700 0.747800 3.430514 -5.134747 2.721080 -60.661364 -53.003332 36.713348 40.862202 -42.829787 -16.991971 -0.944019 -0.956282 -63.225849 0.749621 30.877747 1.028500 -7.125000 0.000000 0.000000 -32.152800 57.409600 -10.496300 -2.463828 4.695479 1.320590 51.916037 55.294749 16.455620 -28.698720 35.062693 -7.959192 0.045510 -0.798383 -65.094181 -3.982442 8.577905 -0.511400 7.125000 0.000000 0.000000 16.854000 -21.134700 10.080000 
0.378698 17.461465 -1.881893 1.727886 -3.829765 5.621191 3.214630 3.300094 0.834044 -22.573845 -6.667304 -20.722136 2.095853 10.683514 32.675499 -0.286808 3.960553 -9.018889 0.621300 -5.044200 -14.034700 -5.260891 -3.437783 0.614132 18.696565 13.363987 -20.747022 -3.465937 -11.301717 35.256662 0.847001 -7.655495 -11.532500 -0.498500 4.526600 -12.563200 0.612097 2.333003 11.668929 0.510039 3.421430 -0.837129 -0.420941 1.585379 -0.892602 -6.921456 -4.712317 -3.996570 3.883738 -6.375458 4.373240 1.979900 -3.114200 0.749700 3.424688 -5.137409 2.723858 -60.633129 -52.908512 36.665326 41.088090 -42.989336 -17.171885 -0.947241 -0.953615 -63.198821 0.698913 31.052399 1.007500 -7.125000 0.000000 0.000000 -32.349500 57.543300 -10.677500 -2.460562 4.696022 1.325422 51.980770 55.223495 16.698933 -28.966205 35.305017 -8.096487 0.051594 -0.794728 -65.148669 -4.020334 8.460164 -0.511600 7.125000 0.000000 0.000000 16.836000 -21.243700 10.024600 
0.377509 17.462754 -1.880703 1.729109 -3.843969 5.605859 3.211073 3.301767 0.834733 -22.570969 -6.640885 -20.696810 2.093022 10.677393 32.659900 -0.282577 3.934201 -8.982321 0.592100 -4.926400 -13.698700 -5.260851 -3.438284 0.611539 18.705708 13.373395 -20.700590 -3.457090 -11.287011 35.212750 0.858114 -7.697503 -11.500814 -0.504000 4.551000 -12.632300 0.586314 2.329644 11.672069 0.519261 3.415755 -0.829452 -0.378994 1.581676 -0.875833 -6.944366 -4.700988 -4.007039 3.869615 -6.359020 4.389655 1.976400 -3.106600 0.758100 3.419404 -5.141621 2.725717 -60.581195 -52.810107 36.682466 41.384516 -43.202315 -17.431597 -0.969694 -0.947990 -63.260704 0.625244 31.755728 0.991800 -7.125000 0.000000 0.000000 -33.013500 58.098400 -11.384200 -2.454323 4.698674 1.324618 51.971840 55.156167 16.909242 -29.195652 35.519580 -8.221972 0.055722 -0.801501 -65.161222 -4.195801 8.529642 -0.542600 7.125000 0.000000 0.000000 16.708800 -21.167700 9.972200 
0.376617 17.463844 -1.879613 1.698344 -3.851943 5.589810 3.208530 3.303924 0.836161 -22.534504 -6.625389 -20.653941 2.085747 10.665005 32.625532 -0.277366 3.923234 -9.025802 0.583700 -4.891900 -13.600400 -5.258491 -3.439857 0.610464 18.753829 13.371514 -20.651084 -3.448634 -11.272394 35.171569 0.873121 -7.759271 -11.475792 -0.519400 4.618900 -12.824600 0.625691 2.348387 11.704645 0.514416 3.444268 -0.830947 -0.420225 1.596372 -0.890405 -6.878876 -4.716219 -4.002963 3.845567 -6.379250 4.399336 1.951700 -3.117000 0.759400 3.412812 -5.143124 2.725536 -60.512346 -52.665098 36.859607 41.815399 -43.490066 -17.783298 -0.985089 -0.939880 -63.278283 0.602298 32.323228 0.995200 -7.125000 0.000000 0.000000 -33.536100 58.550900 -11.966400 -2.449395 4.705334 1.331838 51.993411 55.003511 17.040340 -29.463505 35.775216 -8.374941 0.059458 -0.812468 -65.067540 -4.439390 8.654488 -0.588000 7.125000 0.000000 0.000000 16.530500 -21.034200 9.908700 
0.376121 17.465728 -1.878225 1.667537 -3.876396 5.613184 3.205762 3.303377 0.837478 -22.500360 -6.610205 -20.661867 2.076056 10.652781 32.582799 -0.288764 3.969463 -9.026407 0.588300 -4.910700 -13.654200 -5.256846 -3.441044 0.613441 18.786603 13.385150 -20.650166 -3.438667 -11.258494 35.125132 0.884132 -7.796314 -11.427062 -0.515000 4.599900 -12.770700 0.663583 2.357331 11.714656 0.510103 3.458131 -0.848906 -0.454656 1.604926 -0.930839 -6.870703 -4.708894 -3.992482 3.853675 -6.370033 4.411743 1.956500 -3.112900 0.764300 3.401092 -5.144666 2.731547 -60.457268 -52.432855 37.025933 42.346282 -43.825193 -18.172097 -0.968880 -0.929703 -63.170859 0.757316 32.091474 1.062200 -7.125000 0.000000 0.000000 -33.197700 58.397500 -11.702300 -2.446999 4.708854 1.339629 52.072431 54.833903 17.335338 -29.809755 36.091551 -8.568094 0.063681 -0.824369 -65.007029 -4.697221 8.784384 -0.637100 7.125000 0.000000 0.000000 16.342700 -20.894500 9.840500 
